<svg width="60" height="77" viewBox="0 0 60 77" fill="none" xmlns="http://www.w3.org/2000/svg">
<g clip-path="url(#clip0_4005_1742)">
<path d="M50 27.5L30 7.5L7.5 30H12.5V47.5C12.5 48.8261 13.0268 50.0979 13.9645 51.0355C14.9021 51.9732 16.1739 52.5 17.5 52.5H30" stroke="#0165FC" stroke-width="3" stroke-linecap="round" stroke-linejoin="round"/>
<path d="M22.5 52.5V37.5C22.5 36.1739 23.0268 34.9021 23.9645 33.9645C24.9021 33.0268 26.1739 32.5 27.5 32.5H32.5C33.3125 32.5 34.0775 32.6925 34.755 33.0375" stroke="#0165FC" stroke-width="3" stroke-linecap="round" stroke-linejoin="round"/>
<path d="M40 55C40 55 40 50 47.5 45" stroke="#0165FC" stroke-width="3" stroke-linecap="round" stroke-linejoin="round"/>
<path d="M47.5 52.5C45.5109 52.5 43.6032 51.7098 42.1967 50.3033C40.7902 48.8968 40 46.9891 40 45C40 43.0109 40.7902 41.1032 42.1967 39.6967C43.6032 38.2902 45.5109 37.5 47.5 37.5H55V45C55 46.9891 54.2098 48.8968 52.8033 50.3033C51.3968 51.7098 49.4891 52.5 47.5 52.5Z" stroke="#0165FC" stroke-width="3" stroke-linecap="round" stroke-linejoin="round"/>
</g>
<path d="M7.434 70.438H4.233L3.683 72H2.374L5.113 64.344H6.565L9.304 72H7.984L7.434 70.438ZM7.082 69.415L5.839 65.862L4.585 69.415H7.082ZM11.7489 66.83C11.9616 66.5513 12.2513 66.3167 12.6179 66.126C12.9846 65.9353 13.3989 65.84 13.8609 65.84C14.3889 65.84 14.8693 65.972 15.3019 66.236C15.7419 66.4927 16.0866 66.8557 16.3359 67.325C16.5853 67.7943 16.7099 68.3333 16.7099 68.942C16.7099 69.5507 16.5853 70.097 16.3359 70.581C16.0866 71.0577 15.7419 71.4317 15.3019 71.703C14.8693 71.967 14.3889 72.099 13.8609 72.099C13.3989 72.099 12.9883 72.0073 12.6289 71.824C12.2696 71.6333 11.9763 71.3987 11.7489 71.12V74.882H10.4949V65.939H11.7489V66.83ZM15.4339 68.942C15.4339 68.524 15.3459 68.1647 15.1699 67.864C15.0013 67.556 14.7739 67.325 14.4879 67.171C14.2093 67.0097 13.9086 66.929 13.5859 66.929C13.2706 66.929 12.9699 67.0097 12.6839 67.171C12.4053 67.3323 12.1779 67.567 12.0019 67.875C11.8333 68.183 11.7489 68.546 11.7489 68.964C11.7489 69.382 11.8333 69.7487 12.0019 70.064C12.1779 70.372 12.4053 70.6067 12.6839 70.768C12.9699 70.9293 13.2706 71.01 13.5859 71.01C13.9086 71.01 14.2093 70.9293 14.4879 70.768C14.7739 70.5993 15.0013 70.3573 15.1699 70.042C15.3459 69.7267 15.4339 69.36 15.4339 68.942ZM19.204 66.83C19.4167 66.5513 19.7063 66.3167 20.073 66.126C20.4397 65.9353 20.854 65.84 21.316 65.84C21.844 65.84 22.3243 65.972 22.757 66.236C23.197 66.4927 23.5417 66.8557 23.791 67.325C24.0403 67.7943 24.165 68.3333 24.165 68.942C24.165 69.5507 24.0403 70.097 23.791 70.581C23.5417 71.0577 23.197 71.4317 22.757 71.703C22.3243 71.967 21.844 72.099 21.316 72.099C20.854 72.099 20.4433 72.0073 20.084 71.824C19.7247 71.6333 19.4313 71.3987 19.204 71.12V74.882H17.95V65.939H19.204V66.83ZM22.889 68.942C22.889 68.524 22.801 68.1647 22.625 67.864C22.4563 67.556 22.229 67.325 21.943 67.171C21.6643 67.0097 21.3637 66.929 21.041 66.929C20.7257 66.929 20.425 67.0097 20.139 67.171C19.8603 67.3323 19.633 67.567 19.457 67.875C19.2883 68.183 19.204 68.546 19.204 68.964C19.204 69.382 19.2883 69.7487 19.457 70.064C19.633 70.372 19.8603 70.6067 20.139 70.768C20.425 70.9293 20.7257 71.01 21.041 71.01C21.3637 71.01 21.6643 70.9293 21.943 70.768C22.229 70.5993 22.4563 70.3573 22.625 70.042C22.801 69.7267 22.889 69.36 22.889 68.942ZM26.6591 63.86V72H25.4051V63.86H26.6591ZM28.9435 65.136C28.7161 65.136 28.5255 65.059 28.3715 64.905C28.2175 64.751 28.1405 64.5603 28.1405 64.333C28.1405 64.1057 28.2175 63.915 28.3715 63.761C28.5255 63.607 28.7161 63.53 28.9435 63.53C29.1635 63.53 29.3505 63.607 29.5045 63.761C29.6585 63.915 29.7355 64.1057 29.7355 64.333C29.7355 64.5603 29.6585 64.751 29.5045 64.905C29.3505 65.059 29.1635 65.136 28.9435 65.136ZM29.5595 65.939V72H28.3055V65.939H29.5595ZM30.7879 68.161C30.7879 67.413 30.9602 66.742 31.3049 66.148C31.6569 65.554 32.1299 65.092 32.7239 64.762C33.3252 64.4247 33.9815 64.256 34.6929 64.256C35.5069 64.256 36.2292 64.4577 36.8599 64.861C37.4979 65.257 37.9599 65.8217 38.2459 66.555H36.7389C36.5409 66.1517 36.2659 65.851 35.9139 65.653C35.5619 65.455 35.1549 65.356 34.6929 65.356C34.1869 65.356 33.7359 65.4697 33.3399 65.697C32.9439 65.9243 32.6322 66.2507 32.4049 66.676C32.1849 67.1013 32.0749 67.5963 32.0749 68.161C32.0749 68.7257 32.1849 69.2207 32.4049 69.646C32.6322 70.0713 32.9439 70.4013 33.3399 70.636C33.7359 70.8633 34.1869 70.977 34.6929 70.977C35.1549 70.977 35.5619 70.878 35.9139 70.68C36.2659 70.482 36.5409 70.1813 36.7389 69.778H38.2459C37.9599 70.5113 37.4979 71.076 36.8599 71.472C36.2292 71.868 35.5069 72.066 34.6929 72.066C33.9742 72.066 33.3179 71.901 32.7239 71.571C32.1299 71.2337 31.6569 70.768 31.3049 70.174C30.9602 69.58 30.7879 68.909 30.7879 68.161ZM39.2957 68.942C39.2957 68.3333 39.4203 67.7943 39.6697 67.325C39.9263 66.8557 40.271 66.4927 40.7037 66.236C41.1437 65.972 41.6277 65.84 42.1557 65.84C42.6323 65.84 43.0467 65.9353 43.3987 66.126C43.758 66.3093 44.044 66.5403 44.2567 66.819V65.939H45.5217V72H44.2567V71.098C44.044 71.384 43.7543 71.6223 43.3877 71.813C43.021 72.0037 42.603 72.099 42.1337 72.099C41.613 72.099 41.1363 71.967 40.7037 71.703C40.271 71.4317 39.9263 71.0577 39.6697 70.581C39.4203 70.097 39.2957 69.5507 39.2957 68.942ZM44.2567 68.964C44.2567 68.546 44.1687 68.183 43.9927 67.875C43.824 67.567 43.6003 67.3323 43.3217 67.171C43.043 67.0097 42.7423 66.929 42.4197 66.929C42.097 66.929 41.7963 67.0097 41.5177 67.171C41.239 67.325 41.0117 67.556 40.8357 67.864C40.667 68.1647 40.5827 68.524 40.5827 68.942C40.5827 69.36 40.667 69.7267 40.8357 70.042C41.0117 70.3573 41.239 70.5993 41.5177 70.768C41.8037 70.9293 42.1043 71.01 42.4197 71.01C42.7423 71.01 43.043 70.9293 43.3217 70.768C43.6003 70.6067 43.824 70.372 43.9927 70.064C44.1687 69.7487 44.2567 69.382 44.2567 68.964ZM48.4228 66.819C48.6061 66.511 48.8481 66.2727 49.1488 66.104C49.4568 65.928 49.8198 65.84 50.2378 65.84V67.138H49.9188C49.4274 67.138 49.0534 67.2627 48.7968 67.512C48.5474 67.7613 48.4228 68.194 48.4228 68.81V72H47.1688V65.939H48.4228V66.819ZM56.9454 68.821C56.9454 69.0483 56.9308 69.2537 56.9014 69.437H52.2704C52.3071 69.921 52.4868 70.3097 52.8094 70.603C53.1321 70.8963 53.5281 71.043 53.9974 71.043C54.6721 71.043 55.1488 70.7607 55.4274 70.196H56.7804C56.5971 70.7533 56.2634 71.2117 55.7794 71.571C55.3028 71.923 54.7088 72.099 53.9974 72.099C53.4181 72.099 52.8974 71.9707 52.4354 71.714C51.9808 71.45 51.6214 71.0833 51.3574 70.614C51.1008 70.1373 50.9724 69.5873 50.9724 68.964C50.9724 68.3407 51.0971 67.7943 51.3464 67.325C51.6031 66.8483 51.9588 66.4817 52.4134 66.225C52.8754 65.9683 53.4034 65.84 53.9974 65.84C54.5694 65.84 55.0791 65.9647 55.5264 66.214C55.9738 66.4633 56.3221 66.8153 56.5714 67.27C56.8208 67.7173 56.9454 68.2343 56.9454 68.821ZM55.6364 68.425C55.6291 67.963 55.4641 67.5927 55.1414 67.314C54.8188 67.0353 54.4191 66.896 53.9424 66.896C53.5098 66.896 53.1394 67.0353 52.8314 67.314C52.5234 67.5853 52.3401 67.9557 52.2814 68.425H55.6364Z" fill="#0165FC"/>
<defs>
<clipPath id="clip0_4005_1742">
<rect width="60" height="60" fill="white"/>
</clipPath>
</defs>
</svg>
