<svg width="16" height="16" viewBox="0 0 16 16" fill="none" xmlns="http://www.w3.org/2000/svg">
<g clip-path="url(#clip0_399_2723)">
<path d="M8 2.66667C8 2.84348 8.07024 3.01305 8.19526 3.13807C8.32029 3.2631 8.48986 3.33333 8.66667 3.33333C8.84348 3.33333 9.01305 3.2631 9.13807 3.13807C9.2631 3.01305 9.33333 2.84348 9.33333 2.66667C9.33333 2.48986 9.2631 2.32029 9.13807 2.19526C9.01305 2.07024 8.84348 2 8.66667 2C8.48986 2 8.32029 2.07024 8.19526 2.19526C8.07024 2.32029 8 2.48986 8 2.66667Z" stroke="#BDBDBD" stroke-width="1.25" stroke-linecap="round" stroke-linejoin="round"/>
<path d="M4.66663 14L6.66663 11.3334" stroke="#BDBDBD" stroke-width="1.25" stroke-linecap="round" stroke-linejoin="round"/>
<path d="M10.6667 14L9.33337 11.3334L7.33337 9.33337L8.00004 5.33337" stroke="#BDBDBD" stroke-width="1.25" stroke-linecap="round" stroke-linejoin="round"/>
<path d="M4 8.00004L5.33333 6.00004L8 5.33337L10 7.33337L12 8.00004" stroke="#BDBDBD" stroke-width="1.25" stroke-linecap="round" stroke-linejoin="round"/>
</g>
<defs>
<clipPath id="clip0_399_2723">
<rect width="16" height="16" fill="white"/>
</clipPath>
</defs>
</svg>
